PathFileType	4	(X/Y/Z)	C:/Users/beibeiliu/ov580/test_trc/User1\sequence.17_training_dense_left.trc
DataRate	CameraRate	NumFrames	NumMarkers	Units	OrigDataRate	OrigDataStartFrame	OrigNumFrames
120	120	16	19	mm	120	74	292
Frame#	Time	ThumbCMC			ThumbMCP			ThumbIP			ThumbTip			IndexMCP			IndexPIP			IndexTip			MiddleMCP			MiddlePIP			MiddleTip			RingMCP			RingPIP			RingTip			PinkyMCP			PinkyPIP			PinkyTip			BackHand1			BackHand2			BackHand3	
		X0	Y0	Z0	X1	Y1	Z1	X2	Y2	Z2	X3	Y3	Z3	X4	Y4	Z4	X5	Y5	Z5	X6	Y6	Z6	X7	Y7	Z7	X8	Y8	Z8	X9	Y9	Z9	X10	Y10	Z10	X11	Y11	Z11	X12	Y12	Z12	X13	Y13	Z13	X14	Y14	Z14	X15	Y15	Z15	X16	Y16	Z16	X17	Y17	Z17	X18	Y18	Z18	
73	0.608333	-224.561	35.7174	53.7597	-224.07	52.3244	30.0968	-232.078	70.9866	9.02565	-235.972	88.1364	7.92527	-228.935	13.282	-35.4155	-227.363	7.52268	-61.8091	-222.719	-6.75328	-87.151	-199.403	-5.54174	-37.4016	-165.819	-2.08454	-33.0317	-163.391	7.6174	8.46673	-190.395	-25.0758	-24.7902	-157.738	-12.114	-13.0715	-157.986	-2.54294	19.5568	-185.959	-42.9798	-11.1382	-161.363	-30.3864	-1.94593	-170.077	-6.51204	21.3505	-235.21	-27.9352	18.5154	-239.523	-30.936	53.5073	-241.418	4.86064	33.7188	
74	0.616667	-218.91	36.673	52.3248	-215.078	58.1297	32.9179	-220.253	75.5645	10.8237	-221.769	93.75	10.7302	-226.049	17.817	-35.811	-225.145	10.3582	-60.5812	-223.241	2.51578	-86.644	-199.208	-5.18829	-39.1699	-166.67	-6.23622	-31.4463	-162.112	4.37986	5.41679	-196.563	-24.4555	-24.9516	-159.887	-21.0763	-12.3105	-159.24	-11.2212	15.1086	-195.351	-46.6765	-9.82638	-171.233	-35.0057	-4.41	-172.735	-11.5701	19.8099	-239.393	-25.4198	21.5445	-246.932	-18.8892	55.2036	-241.194	13.5281	34.8796	
75	0.625	-214.317	42.5524	52.4214	-205.626	58.3981	32.8355	-208.336	78.5552	17.3605	-206.312	96.7656	13.0423	-224.706	21.3607	-35.1995	-222.824	14.9085	-62.4805	-221.993	10.2399	-86.5654	-202.524	-2.93414	-38.7087	-168.791	-10.5941	-31.597	-167.223	-1.19364	8.96905	-199.059	-27.1135	-24.6578	-166.32	-23.621	-14.679	-164.869	-15.7805	21.2805	-205.733	-43.0327	-9.93533	-176.521	-39.7348	-3.0954	-176.19	-13.8495	20.0952	-243.668	-13.5928	15.6264	-250.125	-11.5781	56.0437	-241.628	18.2367	37.2687	
76	0.633333	-208.49	44.4513	51.0978	-196.141	59.4916	36.3835	-194.203	76.8037	16.4417	-189.801	97.6188	17.5043	-219.263	32.5831	-33.8316	-219.416	26.5455	-61.251	-220.039	14.8013	-84.9451	-202.223	-1.93284	-40.0149	-171.289	-15.0286	-31.3289	-167.524	-6.23983	6.14044	-204.481	-21.8889	-26.5535	-171.483	-31.2611	-11.9297	-170.203	-23.1622	18.0466	-212.194	-43.5305	-12.4715	-184.567	-41.9047	-4.43654	-180.81	-17.3928	23.6224	-246.904	-7.53034	19.2237	-255.315	-7.87447	50.6564	-239.697	24.6739	32.729	
77	0.641667	-203.593	39.0153	53.8294	-187.489	53.7739	35.5676	-179.136	75.3187	21.3159	-172.372	90.8647	20.8128	-215.741	32.438	-33.6651	-215.649	29.1756	-61.1025	-217.808	20.0524	-87.4294	-203.795	0.775224	-39.8108	-174.944	-16.2812	-33.9476	-173.069	-13.8256	5.77986	-207.767	-23.5244	-26.9575	-178.376	-35.5429	-11.5353	-176.588	-26.4598	20.3481	-218.511	-39.521	-15.733	-191.135	-41.8201	-4.75071	-187.707	-22.4813	18.135	-251.732	-0.977192	15.777	-255.856	-0.842708	51.918	-236.76	28.5506	33.2154	
78	0.65	-196.756	40.3159	55.6009	-179.84	50.8944	35.567	-168.586	67.9806	22.5722	-158.781	83.8923	19.2163	-209.883	33.6742	-35.7098	-209.649	32.1392	-58.9607	-212.364	23.9965	-84.4011	-208.034	-1.22201	-38.3068	-176.005	-22.2181	-30.7605	-174.02	-17.0782	5.75747	-214.205	-20.8768	-27.8935	-185.334	-40.3199	-13.9295	-181.82	-32.8062	15.884	-228.237	-35.4447	-14.7895	-197.788	-43.2081	-4.82132	-193.287	-25.6485	20.0316	-248.452	5.1538	18.2721	-254.764	5.6018	50.1241	-229.309	32.5357	35.3293	
79	0.658333	-193.401	34.5911	54.1932	-173.103	44.1438	38.8774	-158.306	62.5967	26.0376	-146.758	75.1849	24.0517	-206.521	32.614	-33.0389	-207.204	29.7882	-62.5185	-208.577	26.8997	-83.9099	-207.446	-1.9622	-39.2602	-181.945	-24.0801	-34.8385	-181.358	-24.1183	4.51754	-213.948	-22.106	-30.3815	-193.136	-42.3449	-14.5712	-189.056	-34.3432	16.107	-233.039	-33.604	-17.2733	-207.721	-47.0901	-8.09336	-201.48	-29.6234	19.1618	-250.371	8.00141	17.9972	-255.563	13.0224	49.3555	-227.799	34.6757	35.1531	
80	0.666667	-191.444	28.1344	55.1052	-167.845	35.6798	44.2588	-153.443	50.223	26.1781	-137.834	60.3752	25.2667	-202.6	33.239	-35.6275	-203.774	30.4039	-61.5475	-203.407	28.3602	-86.4468	-208.339	-1.68449	-39.2687	-187.402	-30.2615	-33.0858	-185.518	-26.1756	4.05636	-219.281	-17.9783	-29.045	-198.704	-40.9511	-17.5422	-197.122	-32.7066	17.8333	-239.105	-34.0995	-18.9837	-215.503	-43.5012	-9.29108	-209.383	-31.4626	20.4632	-252.028	13.9816	12.6087	-252.883	16.4904	50.991	-223.766	34.4125	37.5481	
81	0.675	-186.586	25.837	58.9541	-164.891	29.112	43.5794	-147.654	42.6762	29.8442	-130.995	49.6261	28.1169	-198.209	33.8183	-31.0116	-201.38	32.4921	-56.1491	-204.492	29.9207	-84.6223	-206.762	2.04181	-39.3502	-189.527	-28.0933	-35.2406	-193.985	-28.0315	4.77706	-224.854	-16.1512	-29.0181	-208.353	-42.896	-17.8402	-204.558	-32.6914	18.4227	-240.311	-25.7528	-20.0787	-221.394	-41.7974	-9.47717	-217.585	-31.043	22.5455	-251.689	18.1945	16.1973	-256.6	17.95	50.2814	-221.268	33.8594	38.127	
82	0.683333	-187.02	22.0384	60.2799	-166.755	21.1572	46.8221	-145.308	34.6688	29.8592	-128.5	42.4064	25.371	-195.231	38.3244	-28.4457	-196.334	38.4505	-52.823	-202.931	36.5538	-79.3114	-210.903	8.71867	-36.6778	-195.761	-26.6323	-33.9448	-198.612	-24.795	4.72007	-227.53	-10.587	-30.1675	-215.233	-39.1224	-18.407	-209.059	-30.9271	15.0114	-248.831	-15.4424	-18.3971	-229.384	-39.0043	-11.5772	-222.68	-28.8015	18.5231	-247.138	26.2646	16.5575	-253.301	25.2166	53.7064	-221.142	36.3158	43.1833	
83	0.691667	-189.214	17.573	65.4739	-163.4	19.9297	50.3138	-146.138	30.0163	33.2067	-125.12	36.7065	28.3075	-193.474	45.1832	-21.0141	-196.441	48.875	-47.8204	-200.006	51.3327	-73.1714	-213.122	15.8547	-37.7738	-203.31	-17.3761	-36.2042	-202.835	-20.3639	1.02548	-230.255	1.66076	-28.8994	-219.066	-29.7822	-21.1705	-217.128	-26.0308	14.5383	-253.141	-5.7951	-18.6632	-236.539	-30.699	-14.0497	-224.691	-19.6957	16.9672	-249.547	31.7823	21.0053	-256.204	27.4575	57.2743	-218.281	39.1761	46.6647	
84	0.7	-186.738	21.8922	66.6977	-162.009	22.0105	52.653	-140.256	31.8319	41.191	-122.7	34.1076	34.062	-192.485	59.8033	-10.4178	-196.369	68.9702	-40.2007	-196.98	74.9619	-61.7897	-208.291	32.981	-32.4631	-204.258	0.585594	-38.8291	-201.291	-10.0182	0.590843	-231.146	17.2734	-27.8636	-218.384	-15.3631	-20.9551	-217.401	-15.5626	12.817	-249.448	11.9274	-19.6857	-238.294	-14.9501	-16.1434	-225.495	-11.4976	14.5584	-249.156	45.0913	27.2082	-253.793	33.4507	64.6712	-215.564	44.8328	53.9626	
85	0.708333	-185.767	20.5567	69.5811	-163.133	21.8153	52.524	-142.091	29.6954	41.1224	-119.815	34.2154	36.783	-192.825	65.9665	-8.48296	-195.018	75.043	-29.9616	-198.279	85.8553	-55.6473	-208.016	43.2804	-28.4609	-201.067	7.96552	-37.2313	-201.744	-5.02491	-2.91185	-232.101	25.4828	-27.125	-218.252	-6.33921	-24.2874	-220.67	-12.3128	11.0076	-252.277	17.9895	-20.5612	-237.697	-5.62509	-17.2024	-228.45	-8.31669	17.9985	-247.986	47.8121	32.2201	-250.635	38.6487	64.2588	-214.215	45.0408	59.2887	
86	0.716667	-186.577	21.4637	68.2972	-160.608	21.7323	52.9411	-138.54	28.3255	44.7219	-115.733	34.3703	36.7793	-192.814	64.6962	-9.03225	-190.992	77.7275	-32.9981	-196.704	88.4075	-58.0064	-212.079	43.3554	-28.6295	-203.34	11.2233	-40.0268	-203.842	-5.4873	-0.164941	-229.434	26.5096	-26.1245	-221.18	-8.17575	-22.6704	-220.172	-14.1872	6.83874	-249.466	21.3539	-18.0564	-234.616	-4.07265	-14.1487	-228.995	-8.43829	15.6519	-246.676	47.7317	32.6706	-248.572	41.7175	63.9229	-211.85	48.1012	57.4396	
87	0.725	-183.417	21.6712	66.5255	-157.675	19.8107	52.281	-138.742	26.0077	38.4615	-115.321	27.8005	38.8621	-191.663	62.5315	-15.3595	-192.854	70.8318	-37.2018	-196.308	81.5414	-61.8401	-208.345	38.3774	-33.3809	-201.716	5.02001	-41.1898	-201.828	-9.62288	-5.73595	-232.871	22.3445	-27.6938	-221.179	-10.1216	-24.6758	-218.691	-16.7621	9.41128	-250.236	18.0228	-17.5273	-238.042	-10.4902	-12.9356	-229.293	-10.4472	16.4406	-245.844	49.5316	29.9384	-249.99	40.3134	65.6907	-211.777	48.0444	54.2008	
88	0.733333	-181.548	22.7254	62.5004	-159.106	16.7355	49.9383	-132.401	22.5266	38.3959	-113.231	22.0223	32.7527	-191.036	54.3264	-18.1298	-189.879	63.3901	-46.0087	-197.034	69.9716	-66.0527	-212.046	29.6883	-37.4289	-205.615	-4.67345	-39.4943	-201.598	-15.4327	-5.35317	-234.23	16.9988	-26.8402	-222.851	-14.9509	-23.7181	-220.362	-21.7718	9.11731	-250.395	13.0833	-18.3948	-238.528	-12.5716	-13.2528	-229.473	-15.3643	17.0886	-242.444	48.1425	28.2123	-249.058	42.9923	61.1377	-208.583	47.6025	46.5658	
